# xmcd
#
# Track frame offsets:
#	150
#	12448
#	35313
#	57596
#	77184
#	90878
#	106453
#	129510
#	145552
#	154283
#	180203
#
# Disc length: 2678 seconds
#
# Revision: 1
# Processed by: cddbd v1.5.2PL0 Copyright (c) Steve Scherf et al.
# Submitted via: audiograbber 1.83.01
#
DISCID=810a740b
DTITLE=Various Artist - Limhamn-Bronshoj Bluesfestival 2005
DYEAR=2005
DGENRE=Blues
TTITLE0=Sven Zetterberg - Those days are gone
TTITLE1=H.P. Lange and Trols Jensen - I am the blues
TTITLE2=Johnny Rawls - Lucy
TTITLE3=Bluesfabriken - Som en orkan
TTITLE4=Borge Bicep´s Jensen - I don't want you
TTITLE5=Bluebirds - Don't know how
TTITLE6=Sky High - I want you
TTITLE7=Simon Says - Thank u mama
TTITLE8=Jalle Olsson och Co - Helt OK
TTITLE9=Peter Thorup - Lys fra dig
TTITLE10=Nalle - Man with a broken heart
EXTD=
EXTT0=
EXTT1=
EXTT2=
EXTT3=
EXTT4=
EXTT5=
EXTT6=
EXTT7=
EXTT8=
EXTT9=
EXTT10=
PLAYORDER=
